<svg width="80" height="62" viewBox="0 0 80 62" fill="none" xmlns="http://www.w3.org/2000/svg">
<path d="M36.2727 42.8358C35.752 42.8358 35.3326 42.6188 35.0144 42.1849C34.7251 41.7221 34.4647 41.0278 34.2333 40.1021C34.0019 39.1475 33.6403 37.4986 33.1485 35.1555C32.6568 37.0936 31.7311 38.6413 30.3715 39.7984C29.0119 40.9266 27.3485 41.4907 25.3814 41.4907C23.5879 41.4907 22.0692 40.8687 20.8253 39.6248C19.6103 38.352 18.6991 36.6886 18.0916 34.6348C17.4841 32.552 17.1804 30.3101 17.1804 27.9091C17.1804 26.8098 17.2816 25.8696 17.4841 25.0886C17.7156 24.2786 17.9904 23.6711 18.3086 23.2661C18.6557 22.8612 18.9884 22.6731 19.3066 22.7021C19.6537 22.7021 19.8273 22.9335 19.8273 23.3963C19.8273 23.7724 19.726 24.3654 19.5235 25.1754C19.321 26.0721 19.2198 27.0991 19.2198 28.2562C19.2198 29.9919 19.4657 31.6841 19.9575 33.333C20.4782 34.9819 21.2303 36.3415 22.2138 37.4118C23.2263 38.4532 24.4123 38.9739 25.7719 38.9739C26.9001 38.9739 27.9271 38.6413 28.8528 37.9759C29.7784 37.3106 30.5016 36.4717 31.0223 35.4592C31.572 34.4467 31.8468 33.4487 31.8468 32.4652V25.5659C32.165 24.9584 32.5989 24.6547 33.1485 24.6547C33.6403 24.6547 33.973 25.0741 34.1465 25.913C34.3201 26.7519 34.4069 27.938 34.4069 29.4712C34.4069 30.7729 34.3924 31.7709 34.3635 32.4652C34.5371 33.4198 34.7974 34.3889 35.1446 35.3724C35.5206 36.356 35.9835 37.4697 36.5331 38.7136C37.1984 40.2468 37.5311 41.1869 37.5311 41.534C37.5311 42.4019 37.1116 42.8358 36.2727 42.8358Z" fill="#A5A3A6"/>
<path d="M43.4035 42.749C42.7671 39.5959 42.2754 35.8642 41.9282 31.554C41.61 27.2148 41.4509 23.0203 41.4509 18.9704C41.4509 16.9454 41.4943 15.1519 41.5811 13.5898C41.5811 13.2137 41.8704 13.0257 42.4489 13.0257C42.9118 13.0257 43.2011 13.1414 43.3168 13.3728C43.4614 13.6043 43.5337 13.9659 43.5337 14.4576C43.5337 19.1439 43.6205 23.1504 43.7941 26.4771C43.9676 29.7749 44.1991 33.333 44.4883 37.1515C44.6619 39.6103 44.7776 41.2737 44.8355 42.1415C44.8644 42.6044 44.6185 42.8358 44.0978 42.8358C43.9242 42.8358 43.6928 42.8069 43.4035 42.749Z" fill="#A5A3A6"/>
<path d="M68.2656 42.8358C67.7449 42.8358 67.3255 42.6188 67.0073 42.1849C66.718 41.7221 66.4576 41.0278 66.2262 40.1021C65.9948 39.1475 65.6332 37.4986 65.1414 35.1555C64.6497 37.0936 63.724 38.6413 62.3644 39.7984C61.0048 40.9266 59.3414 41.4907 57.3743 41.4907C55.5808 41.4907 54.0621 40.8687 52.8182 39.6248C51.6032 38.352 50.692 36.6886 50.0845 34.6348C49.477 32.552 49.1733 30.3101 49.1733 27.9091C49.1733 26.8098 49.2745 25.8696 49.477 25.0886C49.7085 24.2786 49.9833 23.6711 50.3015 23.2661C50.6486 22.8612 50.9813 22.6731 51.2995 22.7021C51.6466 22.7021 51.8202 22.9335 51.8202 23.3963C51.8202 23.7724 51.7189 24.3654 51.5164 25.1754C51.3139 26.0721 51.2127 27.0991 51.2127 28.2562C51.2127 29.9919 51.4586 31.6841 51.9504 33.333C52.4711 34.9819 53.2232 36.3415 54.2067 37.4118C55.2192 38.4532 56.4052 38.9739 57.7648 38.9739C58.893 38.9739 59.92 38.6413 60.8457 37.9759C61.7713 37.3106 62.4945 36.4717 63.0152 35.4592C63.5649 34.4467 63.8397 33.4487 63.8397 32.4652V25.5659C64.1579 24.9584 64.5918 24.6547 65.1414 24.6547C65.6332 24.6547 65.9659 25.0741 66.1394 25.913C66.313 26.7519 66.3998 27.938 66.3998 29.4712C66.3998 30.7729 66.3853 31.7709 66.3564 32.4652C66.53 33.4198 66.7903 34.3889 67.1374 35.3724C67.5135 36.356 67.9763 37.4697 68.526 38.7136C69.1913 40.2468 69.524 41.1869 69.524 41.534C69.524 42.4019 69.1045 42.8358 68.2656 42.8358Z" fill="#A5A3A6"/>
<path fill-rule="evenodd" clip-rule="evenodd" d="M14.6616 0.00388393C15.2211 0.0525412 15.6353 0.545597 15.5866 1.10515C14.8904 9.1117 10.8172 18.0943 7.36212 25.6366C7.29809 25.7763 7.23427 25.9156 7.1707 26.0543C5.5007 29.6989 3.99472 32.9855 3.04421 35.7219C2.55163 37.14 2.22437 38.3664 2.09534 39.3859C1.96464 40.4187 2.05159 41.1328 2.27275 41.6027C2.76676 42.6525 3.57849 43.1178 4.76773 43.2851C6.03738 43.4638 7.58446 43.2774 9.3654 43.0602L9.37115 43.0595C11.0793 42.8512 12.9867 42.6186 14.7322 42.8382C16.5275 43.0641 18.2455 43.7793 19.4723 45.5172C20.0327 46.3111 20.3852 47.0594 20.5026 47.7809C20.6249 48.5318 20.4828 49.1982 20.152 49.7699C19.837 50.3144 19.3786 50.7258 18.938 51.0481C18.5336 51.344 18.0819 51.6079 17.6866 51.8388C17.6531 51.8584 17.62 51.8778 17.5873 51.8969C17.1453 52.1556 16.781 52.3753 16.4912 52.6064C16.2026 52.8364 16.0664 53.0178 16.008 53.1612C15.9378 53.3336 15.8172 53.8861 17.031 55.2618C19.3447 57.8839 22.6902 59.3267 27.2525 59.367C31.8446 59.4077 37.6298 58.0225 44.6826 54.9999C51.8079 51.9462 56.5062 50.1908 61.3902 49.3117C66.2741 48.4326 71.2897 48.4395 79.0325 48.8169C79.5935 48.8443 80.0261 49.3212 79.9988 49.8822C79.9714 50.4432 79.4945 50.8758 78.9335 50.8485C71.2043 50.4717 66.3889 50.4786 61.7505 51.3135C57.112 52.1485 52.5965 53.8211 45.4838 56.8694C38.2987 59.9488 32.2191 61.4451 27.2345 61.401C22.2201 61.3566 18.2772 59.7483 15.5059 56.6075C14.1773 55.1018 13.5905 53.705 14.1242 52.3942C14.3677 51.7962 14.8009 51.3525 15.2234 51.0158C15.6447 50.68 16.1332 50.3913 16.5598 50.1415L16.6392 50.0951C17.0569 49.8508 17.421 49.6378 17.737 49.4065C18.0711 49.1621 18.2774 48.9485 18.3915 48.7513C18.4898 48.5815 18.541 48.3898 18.4951 48.1078C18.4444 47.7965 18.2672 47.3371 17.8106 46.6902C17.0034 45.5467 15.8823 45.033 14.4783 44.8563C13.0265 44.6736 11.3767 44.864 9.61162 45.0793L9.46727 45.0969C7.81357 45.2989 6.02984 45.5168 4.48426 45.2993C2.8132 45.0641 1.29433 44.3005 0.432358 42.4688C-0.0244778 41.498 -0.0752366 40.337 0.0774476 39.1305C0.231803 37.9109 0.609022 36.5338 1.12284 35.0545C2.10619 32.2235 3.64896 28.857 5.29739 25.2598C5.36905 25.1035 5.44091 24.9467 5.51293 24.7894C9.00728 17.1615 12.9005 8.51629 13.5603 0.928952C13.6089 0.369394 14.102 -0.0447732 14.6616 0.00388393Z" fill="#A5A3A6"/>
</svg>
