<?xml version="1.0" encoding="UTF-8"?>
<svg id="_レイヤー_2" data-name="レイヤー 2" xmlns="http://www.w3.org/2000/svg" viewBox="0 0 281.71 300">
  <defs>
    <style>
      .cls-1 {
        fill: none;
      }
    </style>
  </defs>
  <g id="_レイヤー_1-2" data-name="レイヤー 1">
    <rect class="cls-1" width="281.71" height="300"/>
    <g>
      <path d="m70.6,224.83c-.14,2.74-2.52,2.66-2.88.22-.29-2.66-.72-4.68-2.02-5.98-1.73-1.94-5.26-4.54-14.33-4.54-13.83,0-19.73,9.36-19.73,20.74,0,15.05,7.92,24.63,22.11,24.63,5.9,0,11.16-1.15,11.16-6.41,0-2.66,0-6.26-.14-7.42-.14-1.22-.29-1.94-1.22-2.38-1.01-.5-2.38-.72-5.33-1.08-2.52-.29-2.45-2.66.22-2.66.79,0,2.66.07,4.54.07,6.26,0,9.43-.36,10.8-.43,2.38-.22,2.45,1.94.22,2.59-2.88.79-3.1,1.22-3.1,4.25v5.9c0,2.3.22,2.59,1.87,3.24,1.22.36.65,2.09-.43,2.52-2.88,1.15-11.81,5.4-21.89,5.4-17.35,0-25.99-12.46-25.99-25.92,0-7.71,3.02-14.55,9.58-19.87,6.19-4.97,13.68-6.77,20.45-6.77,5.9,0,10.66,1.37,13.39,2.74.72-.79,1.51-1.44,2.16-1.8,1.01-.65,2.52-.29,2.23.79-1.08,3.46-1.51,7.42-1.66,12.17Z"/>
      <path d="m101.99,240.39c-.29-7.13-4.61-9.15-8.14-9.15-2.81,0-4.18,1.01-4.9,2.45-.72,1.37-1.08,3.38-1.73,4.97-.58,1.51-2.23,1.94-3.17-.22-.5-1.01-.72-2.16-.72-3.24,0-.86.22-1.51,1.01-2.16,3.67-2.88,10.01-5.62,12.53-5.62,8.57,0,10.22,7.06,10.22,11.74s-.22,15.84-.22,16.71c0,.72.07,1.22.22,1.44.65,1.15,2.74,1.08,4.1,1.08,1.51-.07,1.51,1.87,0,2.74-1.66,1.08-4.39,1.8-6.84,1.73-2.3-.07-2.59-2.09-2.74-5.69-5.18,4.39-9,5.98-12.31,5.98-2.88,0-7.7-2.38-7.7-8.93s9.43-10.3,17.57-10.3c.72,0,1.73.07,2.81.14v-3.67Zm0,7.42c0-.43-.22-.43-.5-.5-1.15-.22-2.66-.36-5.69-.29-4.97.07-8.28,2.38-8.28,6.12,0,2.81,1.51,5.33,5.54,5.33,2.23,0,4.9-.58,8.06-4.18.58-.65.86-1.01.86-2.59v-3.89Z"/>
      <path d="m130.86,259.61c2.16.36,2.02,2.59-.29,2.59-1.44,0-4.03-.14-6.26-.14-3.1,0-4.39.14-6.77.14-2.09,0-2.38-2.23-.22-2.59,3.1-.58,3.38-1.3,3.67-2.88.14-.94.22-2.52.22-8.21v-27.43c0-5.54,0-6.98-.14-8.42-.29-1.94-.86-2.3-4.39-3.1-1.58-.36-1.66-2.02.07-2.38,3.53-.65,6.05-1.51,7.7-2.3.72-.36,1.3-.72,1.8-.72.86,0,1.3.72.86,2.02-.22.94-.43,2.66-.43,6.62v36.8c0,4.82.07,6.12.14,7.06.14,1.66.58,2.3,4.03,2.95Z"/>
      <path d="m150.45,259.61c2.16.36,2.02,2.59-.29,2.59-1.44,0-4.03-.14-6.26-.14-3.1,0-4.39.14-6.77.14-2.09,0-2.38-2.23-.22-2.59,3.1-.58,3.38-1.3,3.67-2.88.14-.94.22-2.52.22-8.21v-27.43c0-5.54,0-6.98-.14-8.42-.29-1.94-.86-2.3-4.39-3.1-1.58-.36-1.66-2.02.07-2.38,3.53-.65,6.05-1.51,7.7-2.3.72-.36,1.3-.72,1.8-.72.86,0,1.3.72.86,2.02-.22.94-.43,2.66-.43,6.62v36.8c0,4.82.07,6.12.14,7.06.14,1.66.58,2.3,4.03,2.95Z"/>
      <path d="m173.99,258.17c4.32,0,6.55-1.73,8.06-2.59,2.23-1.37,2.88.65,1.08,2.45-1.08,1.01-5.62,4.97-12.6,4.97-8.35,0-14.19-7.27-14.19-17.07,0-6.98,3.17-11.67,6.19-14.4,2.59-2.23,6.12-4.1,10.08-4.1,8.42,0,11.59,6.91,11.67,11.38.43.22.79.43.79,1.08,0,1.3-1.44,2.23-2.74,2.59-2.88.79-6.55,1.58-20.31,1.58.14,9.58,4.97,14.11,11.95,14.11Zm-11.31-17.57c.43.07,1.8.14,2.66.14,6.77,0,11.38-.29,13.11-.65.29-.14.36-.43.36-.79-.22-5.54-4.61-8.28-8.57-8.28s-7.2,2.59-7.99,8.93c0,.43.07.58.43.65Z"/>
      <path d="m215.97,231.53c0,1.51-.43,2.95-1.01,3.82-.22.58-.86,1.37-1.58,1.37-.65,0-.79-.14-1.87-1.37-1.08-1.08-2.09-1.8-3.82-1.8s-3.89.79-6.19,3.46c-.29.43-.36.58-.36,1.08v14.19c0,1.8.07,3.24.14,4.32.14,2.09.79,2.38,4.97,3.17,2.16.43,1.87,2.45-.14,2.45-1.51,0-4.03-.14-7.13-.14s-4.97.14-6.7.14c-1.94,0-2.16-2.02-.22-2.52,3.02-.79,3.17-1.08,3.31-2.81.22-1.22.22-2.74.22-4.54v-11.81c0-2.38,0-4.1-.22-4.75-.07-1.08-.79-1.58-3.53-2.45-1.15-.43-1.15-1.66,0-2.16,2.16-.94,4.61-2.16,6.55-3.31.5-.29.79-.43,1.22-.43.58,0,.94.58,1.08,1.37.22,1.01.43,3.67.43,5.69,5.98-5.9,8.14-7.06,10.44-7.06,1.8,0,4.39,1.15,4.39,4.1Z"/>
      <path d="m218.7,231.32c-2.3-.36-2.23-2.52.07-2.59,1.8-.07,4.61.14,6.7.14,1.44,0,4.75-.14,6.12-.14,2.3,0,2.38,2.23.36,2.66-2.81.65-3.17,1.08-2.59,2.66,2.74,6.7,6.12,14.91,7.99,19.66.22.36.43.43.58.14,3.89-8.57,6.98-16.56,7.7-18.65.72-2.59.36-3.1-3.24-3.82-2.3-.43-2.3-2.59.07-2.66,1.37,0,3.6.14,5.69.14,1.58,0,3.82-.14,5.69-.14,2.45-.07,2.74,2.16.14,2.74-2.66.65-3.17,1.37-4.39,4.03-2.38,5.4-7.63,16.49-14.47,32.83-3.46,8.57-4.54,11.81-5.11,13.61-.22.79-.72,1.37-1.94,1.37-2.45,0-4.03-1.37-4.03-2.59,0-1.08.86-2.52,2.16-4.68,1.8-2.81,2.66-4.32,4.39-7.2,1.37-2.59,2.52-4.97,3.74-7.34.14-.29.22-.65.07-1.15-3.46-8.35-7.92-18.58-10.51-24.19-1.66-3.24-2.02-4.18-5.18-4.82Z"/>
    </g>
    <g>
      <path d="m168.72,33.9c-5.63-3.49-12.9.64-12.9,7.26v64.45c-.04.18-.07.36-.07.55v66.03c0,1.38-1.12,2.5-2.5,2.5h-2.45c-1.38,0-2.5,1.12-2.5,2.5s1.12,2.5,2.5,2.5h14.9c1.38,0,2.5-1.12,2.5-2.5s-1.12-2.5-2.5-2.5h-2.45c-1.38,0-2.5-1.12-2.5-2.5v-29.02c2.42,1.13,5.37,1.16,7.96-.45,16.77-10.38,28.17-30.85,28.17-54.42s-11.41-44.03-28.17-54.42Z"/>
      <path d="m138.92,174.69h-2.66c-.91,0-1.75-.5-2.19-1.3l-17.63-32.07c.7.48,1.41.96,2.13,1.4,5.63,3.49,12.9-.64,12.9-7.26V41.15c0-6.62-7.27-10.74-12.9-7.26-16.77,10.38-28.17,30.85-28.17,54.42,0,3.93.32,7.78.93,11.51v72.37c0,1.38-1.12,2.5-2.5,2.5h-1.59c-1.38,0-2.5,1.12-2.5,2.5s1.12,2.5,2.5,2.5h14.9c1.38,0,2.5-1.12,2.5-2.5s-1.12-2.5-2.5-2.5h-3.31c-1.38,0-2.5-1.12-2.5-2.5v-55.57c2.25,5.04,5.09,9.67,8.4,13.78l22.31,40.59c.92,1.67-.29,3.7-2.19,3.7h-.83c-1.38,0-2.5,1.12-2.5,2.5s1.12,2.5,2.5,2.5h14.9c1.38,0,2.5-1.12,2.5-2.5s-1.12-2.5-2.5-2.5Z"/>
    </g>
  </g>
</svg>